
  <svg xmlns="http://www.w3.org/2000/svg" viewBox="0 0 398.07 107.53"><path d="M117.07 0c-8.47 0-15.1 5.59-15.1 12.72v81.84c0 7.14 6.63 12.73 15.1 12.73 8.44 0 15.3-5.7 15.3-12.73V12.72c0-7.01-6.86-12.72-15.3-12.72zM68.91.66c-8.45 0-15.08 5.57-15.08 12.68v31.68L28.02 6.74l-.17-.22c-.14-.2-.28-.38-.45-.57C24.9 2.61 20.78.7 16.07.7h-.45L15.44.7a2.88 2.88 0 00-.37-.03C6.62.66 0 6.23 0 13.34v81.52c0 7.1 6.62 12.67 15.06 12.67 8.4 0 15.23-5.69 15.23-12.67V62.99l24.55 36.38a12.8 12.8 0 003.9 4.88 14.42 14.42 0 009.69 3.25l.16.01.31.02c8.4 0 15.25-5.68 15.25-12.67V13.34c0-7-6.84-12.68-15.24-12.68z" fill="#ee712a"/><path d="M288.37 1.24c-2.34 0-4.64.42-6.81 1.24l-17.84 6.4c-7.71 2.75-11.28 11.88-8.12 20.79 2.5 6.98 8.78 11.85 15.26 11.85.22 0 .44 0 .66-.02v50.6c0 8.19 7.4 14.6 16.85 14.6 9.38 0 17.01-6.55 17.01-14.6V15.85c0-8.06-7.63-14.62-17-14.62zm0 98.56c-5.58 0-9.94-3.39-9.94-7.7V32.2l-5.66 2.08a5.63 5.63 0 01-1.88.31c-3.58 0-7.28-3.04-8.78-7.23-1.86-5.26-.13-10.52 3.94-11.96l17.9-6.44a12.6 12.6 0 014.42-.81c5.57 0 10.1 3.46 10.1 7.71V92.1c0 4.25-4.53 7.7-10.1 7.7zm99.32-52.12a28.34 28.34 0 005.06-16.03c0-16.77-14.75-30.41-32.9-30.41-18.13 0-32.88 13.64-32.88 30.41a28.4 28.4 0 005.05 16.04c-6.6 6.52-10.38 15.2-10.38 24 0 19.46 17.15 35.3 38.22 35.3s38.21-15.84 38.21-35.3c0-8.8-3.77-17.48-10.38-24.01zm-27.83 52.4c-17.27 0-31.3-12.74-31.3-28.4 0-7.84 3.76-15.46 10.33-20.9l2.7-2.23-2.26-2.66c-3.56-4.21-5.45-9.14-5.45-14.24 0-12.96 11.65-23.5 25.98-23.5s25.99 10.54 25.99 23.5c0 5.09-1.9 10.01-5.47 14.24l-2.25 2.68 2.7 2.2c6.66 5.51 10.33 12.94 10.33 20.92 0 15.65-14.04 28.38-31.3 28.38z" fill="#fab400"/><path d="M183.22 62.24c-.92-.8-3.57-3.45-3.74-7.62-.09-2.34.6-5.77 4.34-8.9l7.95-8.31 5.29-5.7-21.78-23.3c-3.46-4.23-7.56-6.47-11.83-6.47-3.73 0-7.51 1.64-11.28 4.93-7.6 7.79-4.89 16.07.17 21.21l24.46 26.3-24.59 26.65c-3.72 4.16-7.73 13.35.88 21.4 2.87 2.62 6.1 3.95 9.62 3.95 6.52 0 11.43-4.65 12.36-5.6l21.9-23.67-13.75-14.86z" fill="#ee712a"/><path d="M243.2 6.24l-.09-.08c-3.68-3.2-7.68-4.9-11.56-4.9-4.55 0-8.81 2.26-12.33 6.55l-27.45 29.6-7.95 8.3c-3.75 3.14-4.43 6.58-4.34 8.92a10.96 10.96 0 003.74 7.62l36.2 39.11c.94.97 6 5.76 12.83 5.76 3.7 0 7.1-1.4 10.15-4.17 9.01-8.43 4.79-18.07.86-22.46l-24.09-26.1 23.92-25.73c5.34-5.42 8.18-14.16.1-22.42zm-32.1 48.12l27.77 30.1c3.23 3.6 4.8 9.2-.48 14.13-1.9 1.73-3.96 2.6-6.14 2.6-3.24 0-6.64-1.98-8.54-3.9L187.35 58l-.13-.12a5.05 5.05 0 01-1.82-3.5c-.04-.95.17-2.42 2.43-4.33l35.84-38.35.06-.07c2.46-3 5.1-4.5 7.86-4.5 2.38 0 4.9 1.12 7.48 3.33 4.35 4.5 4.27 9.5-.26 14.1L211.1 54.37z" fill="#fab400"/></svg>